<svg width="14" height="14" viewBox="0 0 14 14" fill="none" xmlns="http://www.w3.org/2000/svg">
<path d="M10.8889 6.22222C11.1533 6.22222 11.41 6.25333 11.6667 6.29222V2.54333L5.83333 0L0 2.54333V6.36222C0 9.89333 2.48889 13.1989 5.83333 14C6.26111 13.8989 6.67333 13.7511 7.07778 13.5722C6.54111 12.81 6.22222 11.8844 6.22222 10.8889C6.22222 8.31444 8.31444 6.22222 10.8889 6.22222Z" fill="white"/>
<path d="M10.8889 7.77783C9.17005 7.77783 7.77783 9.17005 7.77783 10.8889C7.77783 12.6078 9.17005 14.0001 10.8889 14.0001C12.6078 14.0001 14.0001 12.6078 14.0001 10.8889C14.0001 9.17005 12.6078 7.77783 10.8889 7.77783ZM10.8889 8.85117C11.3712 8.85117 11.7601 9.24783 11.7601 9.72228C11.7601 10.1967 11.3634 10.5934 10.8889 10.5934C10.4145 10.5934 10.0178 10.1967 10.0178 9.72228C10.0178 9.24783 10.4067 8.85117 10.8889 8.85117ZM10.8889 13.0278C10.1656 13.0278 9.53561 12.6701 9.14672 12.1178C9.18561 11.5578 10.3212 11.2778 10.8889 11.2778C11.4567 11.2778 12.5923 11.5578 12.6312 12.1178C12.2423 12.6701 11.6123 13.0278 10.8889 13.0278Z" fill="white"/>
</svg>
