<svg width="16" height="16" viewBox="0 0 16 16" fill="none" xmlns="http://www.w3.org/2000/svg">
<path d="M0.00114247 0.571265C0.00114247 0.419756 0.0613306 0.274453 0.168466 0.16732C0.275601 0.0601866 0.420908 0 0.57242 0H1.07286C1.9035 0 2.38108 0.540417 2.65758 1.07969C2.8461 1.44873 2.98207 1.89889 3.09518 2.28963H14.8578C15.0343 2.28968 15.2085 2.33065 15.3665 2.4093C15.5246 2.48796 15.6622 2.60218 15.7687 2.74298C15.8752 2.88379 15.9476 3.04736 15.9803 3.22085C16.0129 3.39435 16.0049 3.57305 15.9569 3.74293L14.2477 9.76978C14.1117 10.2479 13.8235 10.6687 13.4268 10.9683C13.0301 11.2679 12.5465 11.4299 12.0494 11.4299H6.24635C5.74508 11.43 5.25766 11.2654 4.85919 10.9613C4.46072 10.6572 4.1733 10.2305 4.04122 9.74693L3.3077 7.05627C3.30349 7.04421 3.29968 7.03202 3.29627 7.01971L2.1183 3.02428L2.00404 2.63925C1.88979 2.24393 1.78924 1.89432 1.63842 1.60069C1.45676 1.2465 1.28994 1.14367 1.07172 1.14367H0.571277C0.419765 1.14367 0.274458 1.08349 0.167323 0.976353C0.0601878 0.86922 0 0.723917 0 0.572408L0.00114247 0.571265Z" fill="#4F4F4F"/>
<path d="M6.28862 16C6.74315 16 7.17907 15.8194 7.50048 15.4981C7.82188 15.1767 8.00245 14.7407 8.00245 14.2862C8.00245 13.8317 7.82188 13.3958 7.50048 13.0744C7.17907 12.753 6.74315 12.5724 6.28862 12.5724C5.83408 12.5724 5.39816 12.753 5.07675 13.0744C4.75535 13.3958 4.57478 13.8317 4.57478 14.2862C4.57478 14.7407 4.75535 15.1767 5.07675 15.4981C5.39816 15.8194 5.83408 16 6.28862 16Z" fill="#4F4F4F"/>
<path d="M12.0014 16C12.4559 16 12.8919 15.8194 13.2133 15.4981C13.5347 15.1767 13.7152 14.7407 13.7152 14.2862C13.7152 13.8317 13.5347 13.3958 13.2133 13.0744C12.8919 12.753 12.4559 12.5724 12.0014 12.5724C11.5469 12.5724 11.1109 12.753 10.7895 13.0744C10.4681 13.3958 10.2876 13.8317 10.2876 14.2862C10.2876 14.7407 10.4681 15.1767 10.7895 15.4981C11.1109 15.8194 11.5469 16 12.0014 16Z" fill="#4F4F4F"/>
</svg>
