<svg width="11" height="11" viewBox="0 0 11 11" fill="none" xmlns="http://www.w3.org/2000/svg">
<path d="M7.16807 5.9952L10.7479 2.42314C10.9047 2.26635 10.9928 2.0537 10.9928 1.83196C10.9928 1.61023 10.9047 1.39758 10.7479 1.24079C10.5912 1.08399 10.3785 0.995911 10.1568 0.995911C9.93514 0.995911 9.72252 1.08399 9.56575 1.24079L5.9942 4.82117L2.42265 1.24079C2.26588 1.08399 2.05326 0.995911 1.83156 0.995911C1.60985 0.995911 1.39723 1.08399 1.24046 1.24079C1.08369 1.39758 0.995622 1.61023 0.995622 1.83196C0.995622 2.0537 1.08369 2.26635 1.24046 2.42314L4.82034 5.9952L1.24046 9.56726C1.16243 9.64466 1.1005 9.73675 1.05823 9.83822C1.01596 9.93968 0.994202 10.0485 0.994202 10.1584C0.994202 10.2684 1.01596 10.3772 1.05823 10.4787C1.1005 10.5801 1.16243 10.6722 1.24046 10.7496C1.31786 10.8277 1.40994 10.8896 1.51139 10.9319C1.61284 10.9741 1.72165 10.9959 1.83156 10.9959C1.94146 10.9959 2.05028 10.9741 2.15173 10.9319C2.25318 10.8896 2.34526 10.8277 2.42265 10.7496L5.9942 7.16923L9.56575 10.7496C9.64315 10.8277 9.73522 10.8896 9.83667 10.9319C9.93812 10.9741 10.0469 10.9959 10.1568 10.9959C10.2667 10.9959 10.3756 10.9741 10.477 10.9319C10.5785 10.8896 10.6705 10.8277 10.7479 10.7496C10.826 10.6722 10.8879 10.5801 10.9302 10.4787C10.9724 10.3772 10.9942 10.2684 10.9942 10.1584C10.9942 10.0485 10.9724 9.93968 10.9302 9.83822C10.8879 9.73675 10.826 9.64466 10.7479 9.56726L7.16807 5.9952Z" fill="#4F4F4F"/>
</svg>
