<svg width="40" height="44" viewBox="0 0 18 26" fill="none" xmlns="http://www.w3.org/2000/svg">
<path d="M15.5455 10.3869V6.86979C15.5806 5.08815 14.9116 3.36508 13.6849 2.07761C12.4583 0.790137 10.7737 0.0431135 9 0C7.22626 0.0431135 5.54174 0.790137 4.31506 2.07761C3.08837 3.36508 2.41941 5.08815 2.45455 6.86979V10.3869H0V24.3565C0 24.7924 0.172402 25.2104 0.47928 25.5186C0.786157 25.8268 1.20237 26 1.63636 26H16.3636C16.7976 26 17.2138 25.8268 17.5207 25.5186C17.8276 25.2104 18 24.7924 18 24.3565V10.3869H15.5455ZM9.81818 18.7933V21.0695H8.18182V18.7193C7.78348 18.5135 7.4672 18.177 7.28546 17.7658C7.10371 17.3546 7.06743 16.8933 7.18264 16.4585C7.29784 16.0237 7.5576 15.6415 7.91882 15.3754C8.28003 15.1093 8.72098 14.9753 9.1685 14.9955C9.61602 15.0157 10.0432 15.189 10.3792 15.4866C10.7151 15.7843 10.9397 16.1883 11.0155 16.6317C11.0914 17.0752 11.014 17.5313 10.7962 17.9245C10.5784 18.3176 10.2333 18.6242 9.81818 18.7933ZM13.9091 10.3869H4.09091V6.86979C4.05563 5.52396 4.55217 4.21883 5.47201 3.23954C6.39185 2.26026 7.66023 1.68645 9 1.64349C10.3398 1.68645 11.6081 2.26026 12.528 3.23954C13.4478 4.21883 13.9444 5.52396 13.9091 6.86979V10.3869Z" fill="white"/>
</svg>
