<svg width="36" height="28" viewBox="0 0 36 28" fill="none" xmlns="http://www.w3.org/2000/svg">
<path d="M1 9.5C1 14.0087 2.79107 18.3327 5.97918 21.5208C9.1673 24.7089 13.4913 26.5 18 26.5C22.5087 26.5 26.8327 24.7089 30.0208 21.5208C33.2089 18.3327 35 14.0087 35 9.5" stroke="white" stroke-width="2" stroke-linecap="round" stroke-linejoin="round"/>
<path d="M18 26.5C18 21.9913 19.7911 17.6673 22.9792 14.4792C26.1673 11.2911 30.4913 9.5 35 9.5" stroke="white" stroke-width="2" stroke-linecap="round" stroke-linejoin="round"/>
<path d="M1 9.5C3.23247 9.5 5.44308 9.93972 7.50562 10.794C9.56815 11.6484 11.4422 12.9006 13.0208 14.4792C14.5994 16.0578 15.8516 17.9318 16.706 19.9944C17.5603 22.0569 18 24.2675 18 26.5" stroke="white" stroke-width="2" stroke-linecap="round" stroke-linejoin="round"/>
<path d="M18 1C19.7132 2.63549 21.054 4.62086 21.9311 6.821C22.8083 9.02114 23.2011 11.3844 23.083 13.75" stroke="white" stroke-width="2" stroke-linecap="round" stroke-linejoin="round"/>
<path d="M12.917 13.75C12.7989 11.3844 13.1917 9.02114 14.0689 6.821C14.946 4.62086 16.2868 2.63549 18 1" stroke="white" stroke-width="2" stroke-linecap="round" stroke-linejoin="round"/>
</svg>
