<svg width="22" height="23" viewBox="0 0 22 23" fill="none" xmlns="http://www.w3.org/2000/svg">
<path d="M21.9784 5.15448C21.9772 4.7582 21.941 4.36279 21.8702 3.97288C21.7911 3.49624 21.6406 3.03424 21.4238 2.60245C21.186 2.14872 20.8765 1.7364 20.5072 1.38143C19.9498 0.83647 19.2617 0.44408 18.5089 0.241996C17.8172 0.0743708 17.1065 -0.00144891 16.3951 0.016493L16.3914 0.00549316H5.60436V0.016493C5.19945 0.013212 4.79465 0.0312651 4.39164 0.0705771C3.95074 0.117726 3.51675 0.21554 3.09826 0.362082C2.4083 0.621912 1.78934 1.04079 1.29162 1.58472C0.793911 2.12864 0.431476 2.78227 0.233744 3.49254C0.0672631 4.17819 -0.00854884 4.88271 0.00824963 5.58807L0 16.4104C0.00702049 16.9004 0.0403735 17.3897 0.0999144 17.8762C0.17339 18.3895 0.325179 18.8884 0.549986 19.3557C0.867392 19.9798 1.31912 20.5257 1.8727 20.9544C2.26826 21.2696 2.71634 21.5126 3.19634 21.6721C3.90101 21.8896 4.635 21.9972 5.37245 21.9911C5.83444 21.9939 6.29551 22.0058 6.75658 22.004C10.1115 21.9893 13.4655 22.0278 16.8195 21.9829C17.2626 21.9732 17.7042 21.9263 18.1395 21.8426C18.962 21.698 19.7276 21.3258 20.3495 20.7683C21.0817 20.1325 21.593 19.2806 21.8097 18.3354C21.943 17.7026 22.0066 17.0571 21.9995 16.4104V16.2811C21.9995 16.2307 21.9811 5.29932 21.9784 5.15448ZM19.0332 15.3342C18.892 15.6642 18.1807 15.9365 16.9762 16.1226C16.8635 16.1409 16.8158 16.3233 16.7507 16.6221C16.7232 16.7459 16.6957 16.8669 16.6591 16.9934C16.6481 17.0472 16.6177 17.0951 16.5738 17.128C16.5299 17.1609 16.4755 17.1766 16.4208 17.1722H16.4024C16.2871 17.1681 16.1724 17.1537 16.0596 17.1291C15.7623 17.0666 15.4595 17.0344 15.1558 17.0328C14.9377 17.0334 14.7201 17.0518 14.505 17.0878C14.0506 17.2028 13.628 17.4187 13.2684 17.7194C12.6609 18.2381 11.8976 18.5391 11.0996 18.5747C11.0538 18.5747 11.0098 18.5728 10.9768 18.571C10.95 18.5733 10.9231 18.5746 10.8961 18.5747C10.0985 18.5396 9.33543 18.2389 8.72828 17.7203C8.36845 17.4194 7.94552 17.2032 7.49081 17.0878C7.27574 17.0518 7.05807 17.0334 6.84 17.0328C6.53635 17.0359 6.23381 17.07 5.9371 17.1346C5.82447 17.1609 5.70977 17.1775 5.59428 17.1841C5.53614 17.1906 5.47766 17.1752 5.43022 17.141C5.38278 17.1068 5.34977 17.0561 5.33762 16.9989C5.29912 16.8706 5.27162 16.745 5.24595 16.6249C5.17995 16.3242 5.13229 16.1409 5.01954 16.1235C3.81599 15.9374 3.10376 15.6642 2.96259 15.3324C2.94827 15.2993 2.93989 15.2639 2.93784 15.2279C2.93496 15.1802 2.94986 15.1332 2.97967 15.096C3.00948 15.0587 3.05207 15.0338 3.09917 15.0262C4.09497 14.846 4.99231 14.3125 5.62636 13.5238C5.97532 13.1202 6.26541 12.6693 6.488 12.1845L6.49167 12.1753C6.55732 12.0679 6.59872 11.9475 6.61297 11.8224C6.62722 11.6973 6.61398 11.5706 6.57417 11.4512C6.41926 11.0845 5.90502 10.9222 5.56586 10.8141C5.48862 10.791 5.41218 10.7653 5.3367 10.7371C5.03604 10.6179 4.54105 10.3667 4.60705 10.0193C4.65757 9.8887 4.74763 9.77715 4.86464 9.70023C4.98166 9.62331 5.11978 9.58488 5.2597 9.5903C5.3278 9.58871 5.3954 9.60217 5.4577 9.62971C5.71152 9.75964 5.99045 9.83313 6.27534 9.84513C6.4445 9.85705 6.61206 9.80576 6.74558 9.70121C6.73703 9.54049 6.72725 9.38007 6.71625 9.21996C6.56141 8.13472 6.62751 7.02938 6.91058 5.97033C7.24354 5.21025 7.79304 4.56512 8.49045 4.11548C9.18785 3.66585 10.0023 3.43165 10.832 3.44213L11.1565 3.43938C11.9873 3.42874 12.8028 3.66301 13.5013 4.11294C14.1998 4.56288 14.7504 5.20856 15.0843 5.96941C15.3675 7.02938 15.4336 8.13564 15.2786 9.22179L15.2759 9.27404L15.2502 9.70213C15.3715 9.79828 15.5226 9.84888 15.6774 9.84513C15.9456 9.82495 16.2073 9.75206 16.4473 9.63063C16.5268 9.59604 16.6128 9.57885 16.6994 9.58021C16.7977 9.57989 16.8951 9.59856 16.9863 9.63521L16.9909 9.63705C17.094 9.66182 17.1874 9.71671 17.2593 9.79474C17.3311 9.87277 17.3781 9.97041 17.3942 10.0752C17.3979 10.2439 17.2732 10.4951 16.6582 10.738C16.5829 10.7661 16.5068 10.7918 16.4299 10.815C16.0898 10.9231 15.5765 11.0863 15.4216 11.4521C15.3819 11.5714 15.3687 11.6979 15.3829 11.8228C15.3972 11.9477 15.4385 12.0681 15.5041 12.1753L15.5078 12.1845C15.8155 12.8873 16.2815 13.5094 16.8693 14.0023C17.4572 14.4953 18.151 14.8457 18.8966 15.0262C18.9436 15.034 18.9861 15.059 19.0159 15.0962C19.0456 15.1334 19.0606 15.1803 19.0579 15.2279C19.056 15.2645 19.0476 15.3005 19.0332 15.3342Z" fill="#4F4F4F"/>
</svg>
