<svg width="32" height="26" viewBox="0 0 32 26" fill="none" xmlns="http://www.w3.org/2000/svg">
<path d="M32 13.9999L28 5.99996H22V1.99999C22 0.899994 21.1 0 20 0H2C0.9 0 0 0.899994 0 1.99999V17.9999L2 19.9999H4.536C4.18489 20.6079 4.00003 21.2977 4 21.9999C3.99997 22.702 4.18478 23.3918 4.53585 23.9999C4.88691 24.608 5.39187 25.113 5.99996 25.4641C6.60804 25.8152 7.29784 26 8 26C8.70216 26 9.39196 25.8152 10 25.4641C10.6081 25.113 11.1131 24.608 11.4642 23.9999C11.8152 23.3918 12 22.702 12 21.9999C12 21.2977 11.8151 20.6079 11.464 19.9999H22.536C22.1849 20.6079 22 21.2977 22 21.9999C22 22.702 22.1848 23.3918 22.5358 23.9999C22.8869 24.608 23.3919 25.113 24 25.4641C24.608 25.8152 25.2978 26 26 26C26.7022 26 27.392 25.8152 28 25.4641C28.6081 25.113 29.1131 24.608 29.4642 23.9999C29.8152 23.3918 30 22.702 30 21.9999C30 21.2977 29.8151 20.6079 29.464 19.9999H32V13.9999ZM22 13.9999V7.99995H26.146L29.146 13.9999H22Z" fill="white"/>
</svg>
