<svg width="30" height="23" viewBox="0 0 30 23" fill="none" xmlns="http://www.w3.org/2000/svg">
<path d="M29.6944 4.96215C29.6944 4.96215 29.4018 2.70793 28.4999 1.71877C27.358 0.416919 26.0791 0.408744 25.4941 0.333126C21.2995 2.13176e-07 14.9991 0 14.9991 0H14.9878C14.9878 0 8.68929 2.13176e-07 4.49278 0.333126C3.90587 0.410787 2.62891 0.416919 1.48697 1.71877C0.585037 2.70793 0.298144 4.96215 0.298144 4.96215C0.298144 4.96215 0 7.60672 0 10.2574V12.7364C0 15.381 0.298144 18.0317 0.298144 18.0317C0.298144 18.0317 0.590662 20.2859 1.48697 21.2771C2.62891 22.579 4.12901 22.5361 4.79842 22.675C7.20045 22.9244 15.0009 23 15.0009 23C15.0009 23 21.307 22.9877 25.5016 22.6607C26.0885 22.5851 27.3655 22.5769 28.5074 21.2751C29.4093 20.2859 29.7019 18.0297 29.7019 18.0297C29.7019 18.0297 30 15.3851 30 12.7344V10.2554C29.9944 7.6108 29.6962 4.9601 29.6962 4.9601L29.6944 4.96215ZM11.892 15.7428V6.55216L19.9962 11.1628L11.892 15.7428Z" fill="#4F4F4F"/>
</svg>
